<?xml version="1.0" encoding="UTF-8"?>
<svg width="100px" height="100px" viewBox="0 0 100 100" version="1.1" xmlns="http://www.w3.org/2000/svg" xmlns:xlink="http://www.w3.org/1999/xlink">
    <!-- Generator: Sketch 41.2 (35397) - http://www.bohemiancoding.com/sketch -->
    <title>big-no</title>
    <desc>Created with Sketch.</desc>
    <defs></defs>
    <g id="Page-1" stroke="none" stroke-width="1" fill="none" fill-rule="evenodd" fill-opacity="0.8">
        <g id="big-no" fill="#A01313">
            <path d="M49.4909091,0 C22.2012987,0 0,22.2012987 0,49.4909091 C0,76.7805195 22.2012987,98.9818182 49.4909091,98.9818182 C76.7805195,98.9818182 98.9818182,76.7805195 98.9818182,49.4909091 C98.9818182,22.2012987 76.7805195,0 49.4909091,0 Z M16.4961039,49.4909091 C16.4961039,31.2974026 31.2974026,16.4961039 49.4909091,16.4961039 C55.6012987,16.4961039 61.3246753,18.1714286 66.2376623,21.0792208 L21.0792208,66.2376623 C18.1727273,61.3246753 16.4961039,55.6012987 16.4961039,49.4909091 Z M49.4909091,82.4857143 C43.3805195,82.4857143 37.6571429,80.8103896 32.7441558,77.9038961 L77.9025974,32.7454545 C80.8090909,37.6584416 82.4857143,43.3818182 82.4857143,49.4922078 C82.4857143,67.6844156 67.6844156,82.4857143 49.4909091,82.4857143 Z" id="Shape"></path>
        </g>
    </g>
</svg>