<?xml version="1.0" encoding="UTF-8"?>
<svg width="100px" height="100px" viewBox="0 0 100 100" version="1.1" xmlns="http://www.w3.org/2000/svg" xmlns:xlink="http://www.w3.org/1999/xlink">
    <!-- Generator: Sketch 41.2 (35397) - http://www.bohemiancoding.com/sketch -->
    <title>coffee</title>
    <desc>Created with Sketch.</desc>
    <defs></defs>
    <g id="Page-1" stroke="none" stroke-width="1" fill="none" fill-rule="evenodd">
        <g id="coffee" fill="#DDDDDD">
            <path d="M50.8308511,14.9531915 C37.5734043,14.9531915 23.7702128,16.1606383 23.7702128,16.1606383 L31.9851064,97.8255319 C31.9851064,97.8255319 41.6095745,100 50.9510638,100 C60.4553191,100 69.6765957,97.8255319 69.6765957,97.8255319 L76.562766,16.1606383 C76.562766,16.1606383 63.9691489,14.9531915 50.8308511,14.9531915 Z" id="Shape"></path>
            <path d="M78.3744681,12.5074468 C78.3744681,11.8351064 78.3478723,11.1734043 78.3861702,10.5021277 C78.4042553,10.2 78.3223404,10.0712766 78.0382979,9.96702128 C77.4404255,9.74680851 76.8521277,9.50851064 76.2617021,9.27234043 L75.7170213,3.59574468 C75.7170213,3.59574468 75.7414894,2.06170213 69.9191489,1.54255319 C64.5712766,1.06595745 57.0223404,0.767021277 50.106383,0.774468085 C43.3414894,0.767021277 35.7021277,1.06808511 30.3542553,1.54468085 C24.5329787,2.06276596 24.6159574,3.59787234 24.6159574,3.59787234 L24.0723404,9.27553191 C23.4819149,9.51170213 22.893617,9.75425532 22.2968085,9.97446809 C22.0117021,10.0797872 21.9308511,10.2159574 21.9478723,10.5170213 C21.987234,11.1882979 21.9585106,11.8340426 21.9585106,12.506383 L21.3542553,14.893617 L23.5287234,14.893617 C23.5287234,14.893617 37.3308511,13.6861702 50.5893617,13.6861702 C63.7265957,13.6861702 76.3212766,14.893617 76.3212766,14.893617 L78.9787234,14.893617 L78.3744681,12.5074468 Z" id="Shape"></path>
        </g>
    </g>
</svg>