<?xml version="1.0" encoding="UTF-8"?>
<svg width="100px" height="100px" viewBox="0 0 100 100" version="1.1" xmlns="http://www.w3.org/2000/svg" xmlns:xlink="http://www.w3.org/1999/xlink">
    <!-- Generator: Sketch 41.2 (35397) - http://www.bohemiancoding.com/sketch -->
    <title>coin</title>
    <desc>Created with Sketch.</desc>
    <defs></defs>
    <g id="Page-1" stroke="none" stroke-width="1" fill="none" fill-rule="evenodd">
        <g id="coin" fill="#DDDDDD">
            <g id="noun_55698_cc" transform="translate(9.000000, 0.000000)">
                <g id="Group">
                    <path d="M71.2545455,16.7563636 C70.1290909,14.7 66.0854545,7.32909091 64.96,5.27818182 C64.5272727,4.48909091 63.9472727,3.80181818 63.2363636,3.21272727 C61.1036364,1.44909091 57.7890909,0.587272727 53.72,0.587272727 L53.7163636,0.587272727 C46.4218182,0.587272727 36.7018182,3.35454545 27.0109091,8.67090909 C10.1090909,17.9381818 -0.312727273,31.4436364 3.74545455,38.8436364 L3.74909091,38.8563636 C4.87454545,40.9090909 8.91272727,48.2745455 10.04,50.3327273 C14.0963636,57.7290909 31.0890909,56.2072727 47.9945455,46.9345455 C64.8981818,37.6618182 75.3145455,24.1509091 71.2545455,16.7527273 L71.2545455,16.7563636 Z M7.18909091,36.9563636 C4.96545455,32.9018182 12.3181818,21.2072727 28.8981818,12.1145455 C37.5745455,7.35636364 46.8509091,4.51454545 53.7163636,4.51454545 C57.7509091,4.51454545 60.5927273,5.48181818 61.5181818,7.16545455 C63.7418182,11.22 56.3890909,22.9145455 39.8090909,32.0090909 C31.1345455,36.7636364 21.8545455,39.6036364 14.9909091,39.6036364 C10.9545455,39.6036364 8.11090909,38.6381818 7.18909091,36.9563636 Z M13.4854545,48.4418182 L10.5672727,43.1218182 C11.4109091,43.2927273 12.3018182,43.4163636 13.2545455,43.4781818 L17.1909091,50.66 C15.32,50.2236364 14.0418182,49.4581818 13.4854545,48.4418182 Z M20.3927273,51.0563636 L16.2436364,43.4981818 C17.1636364,43.4581818 18.12,43.3763636 19.1,43.26 L23.3345455,50.9781818 C22.2963636,51.0509091 21.2945455,51.0854545 20.3927273,51.0563636 Z M26.1490909,50.66 L21.8545455,42.8327273 C22.7290909,42.6690909 23.6181818,42.4818182 24.5290909,42.2618182 L28.86,50.1690909 C27.9272727,50.3709091 27.0254545,50.5309091 26.1490909,50.66 Z M31.4945455,49.5218182 L27.1363636,41.5654545 C27.9745455,41.3236364 28.8254545,41.0618182 29.6836364,40.7690909 L34.0618182,48.7527273 C33.1872727,49.0345455 32.3327273,49.2945455 31.4945455,49.5218182 Z M36.5636364,47.8727273 L32.1781818,39.88 C33.1181818,39.52 34.0690909,39.1218182 35.0236364,38.7163636 L39.4181818,46.7345455 C38.4527273,47.1436364 37.5,47.5218182 36.5636364,47.8727273 Z M41.8163636,45.6527273 L37.4127273,37.6218182 C38.4509091,37.1290909 39.4927273,36.6109091 40.5345455,36.0581818 L44.9381818,44.0963636 C43.8872727,44.6490909 42.8454545,45.1672727 41.8163636,45.6527273 Z M47.2381818,42.8381818 L42.8327273,34.8 C43.8563636,34.2163636 44.8563636,33.6145455 45.8327273,33.0054545 L50.2363636,41.0363636 C49.2745455,41.6436364 48.2781818,42.2436364 47.2381818,42.8381818 Z M52.4290909,39.5945455 L48.0327273,31.5781818 C48.8927273,30.9981818 49.7345455,30.4054545 50.5418182,29.8054545 L54.9290909,37.7981818 C54.1309091,38.4018182 53.2963636,39 52.4290909,39.5945455 Z M57.0127273,36.1618182 L52.6363636,28.1763636 C53.3436364,27.6090909 54.0181818,27.0327273 54.6781818,26.4545455 L59.0418182,34.4090909 C58.4018182,34.9909091 57.7236364,35.5763636 57.0127273,36.1618182 Z M61.0018182,32.5381818 L56.6654545,24.6309091 C57.3381818,23.9836364 57.9781818,23.3345455 58.5836364,22.6890909 L62.8781818,30.5145455 C62.2945455,31.18 61.6781818,31.8527273 61.0018182,32.5381818 Z M64.6563636,28.3109091 L60.4218182,20.5927273 C61.0509091,19.8290909 61.6290909,19.0672727 62.1545455,18.3127273 L66.3018182,25.8709091 C65.8418182,26.6490909 65.2763636,27.4727273 64.6563636,28.3109091 Z M67.6890909,22.9545455 L63.7509091,15.7781818 C64.0927273,15.1563636 64.3854545,14.5436364 64.6454545,13.94 C64.7727273,13.8181818 64.9018182,13.6927273 65.0290909,13.5745455 L67.8109091,18.6418182 C68.3709091,19.6545455 68.3254545,21.1454545 67.6890909,22.9545455 Z" id="Shape"></path>
                    <path d="M69.4327273,53.0290909 C70.0072727,52.2054545 69.8072727,51.0727273 68.9818182,50.4981818 C68.16,49.9218182 67.0254545,50.1236364 66.4509091,50.9490909 C55.8236364,66.1727273 38.2272727,67.0781818 38.0509091,67.0854545 C37.0490909,67.1272727 36.2690909,67.9727273 36.3090909,68.9745455 C36.3490909,69.9527273 37.1527273,70.72 38.1236364,70.72 C38.1472727,70.72 38.1709091,70.72 38.1945455,70.7181818 C38.9872727,70.6872727 57.7454545,69.7727273 69.4327273,53.0290909 Z" id="Shape"></path>
                    <path d="M67.2454545,73.6763636 C57.0709091,82.38 46.0545455,82.0072727 45.9527273,82.0018182 C44.9690909,81.9690909 44.1018182,82.7290909 44.0527273,83.7309091 C44.0054545,84.7345455 44.7781818,85.5872727 45.7818182,85.6345455 C45.8345455,85.6363636 46.0145455,85.6436364 46.3054545,85.6436364 C48.7945455,85.6436364 59.4781818,85.1054545 69.6090909,76.4381818 C70.3727273,75.7854545 70.4618182,74.6381818 69.8090909,73.8745455 C69.1563636,73.1127273 68.0090909,73.0254545 67.2454545,73.6763636 Z" id="Shape"></path>
                    <path d="M60.2672727,93.94 C51.7654545,97.1090909 44.2418182,96.0618182 44.1654545,96.0509091 C43.1581818,95.9 42.2472727,96.5927273 42.1018182,97.5836364 C41.9545455,98.5763636 42.6381818,99.5 43.6290909,99.6472727 C43.7672727,99.6690909 45.1909091,99.8727273 47.4636364,99.8727273 C50.7909091,99.8727273 55.9381818,99.4363636 61.5363636,97.3490909 C62.4781818,96.9981818 62.9563636,95.9509091 62.6054545,95.0109091 C62.2563636,94.0654545 61.2054545,93.5872727 60.2672727,93.94 Z" id="Shape"></path>
                    <path d="M75.6672727,9.45818182 C75.0218182,9.08 74.1836364,9.29272727 73.8,9.94181818 C73.4181818,10.5909091 73.6345455,11.4254545 74.2836364,11.8090909 C74.3527273,11.8490909 81.1818182,16.0054545 78.2690909,25.9018182 C78.0563636,26.6236364 78.4690909,27.3818182 79.1909091,27.5945455 C79.32,27.6327273 79.4490909,27.6509091 79.5763636,27.6509091 C80.1654545,27.6509091 80.7090909,27.2672727 80.8836364,26.6727273 C84.3927273,14.7581818 75.7545455,9.51090909 75.6672727,9.45818182 Z" id="Shape"></path>
                    <path d="M13.7927273,60.8327273 C5.75818182,60.8327273 2.89454545,54.9509091 2.77454545,54.6963636 C2.46,54.0145455 1.65090909,53.7218182 0.969090909,54.0309091 C0.285454545,54.3454545 -0.0163636364,55.1545455 0.298181818,55.84 C0.443636364,56.1545455 3.95818182,63.56 13.7927273,63.56 C14.5454545,63.56 15.1563636,62.9490909 15.1563636,62.1963636 C15.1563636,61.4436364 14.5454545,60.8327273 13.7927273,60.8327273 Z" id="Shape"></path>
                </g>
            </g>
        </g>
    </g>
</svg>