<?xml version="1.0" encoding="UTF-8"?>
<svg width="100px" height="100px" viewBox="0 0 100 100" version="1.1" xmlns="http://www.w3.org/2000/svg" xmlns:xlink="http://www.w3.org/1999/xlink">
    <!-- Generator: Sketch 41.2 (35397) - http://www.bohemiancoding.com/sketch -->
    <title>Artboard</title>
    <desc>Created with Sketch.</desc>
    <defs></defs>
    <g id="Page-1" stroke="none" stroke-width="1" fill="none" fill-rule="evenodd">
        <g id="Artboard" fill="#DDDDDD">
            <g id="noun_614395_cc" transform="translate(6.000000, 0.000000)">
                <path d="M85.75,27.0625 L84.625,25.1875 L85.5,24.6875 L43.75,0.5625 L2,24.6875 L2.875,25.1875 L1.75,27.0625 L0.875,26.5625 L0.875,74.8125 L42.625,98.9375 L42.625,97.9375 L44.875,97.9375 L44.875,98.9375 L86.625,74.8125 L86.625,26.5625 L85.75,27.0625 Z M5.625,29.3125 L3.75,28.1875 L4.875,26.3125 L6.75,27.4375 L5.625,29.3125 Z M9.375,31.4375 L7.5,30.3125 L8.625,28.4375 L10.5,29.5625 L9.375,31.4375 Z M13.25,33.6875 L11.25,32.5625 L12.375,30.6875 L14.25,31.8125 L13.25,33.6875 Z M17,35.9375 L15.125,34.8125 L16.25,32.9375 L18.125,34.0625 L17,35.9375 Z M20.875,38.0625 L19,36.9375 L20,35.0625 L21.875,36.1875 L20.875,38.0625 Z M24.625,40.3125 L22.75,39.1875 L23.875,37.3125 L25.75,38.4375 L24.625,40.3125 Z M28.375,42.4375 L26.5,41.3125 L27.625,39.4375 L29.5,40.5625 L28.375,42.4375 Z M32.25,44.6875 L30.375,43.5625 L31.5,41.6875 L33.375,42.8125 L32.25,44.6875 Z M36,46.9375 L34.125,45.8125 L35.25,43.9375 L37.125,45.0625 L36,46.9375 Z M39.875,49.0625 L38,47.9375 L39.125,46.0625 L41,47.1875 L39.875,49.0625 Z M44.875,95.6875 L42.625,95.6875 L42.625,93.4375 L44.875,93.4375 L44.875,95.6875 Z M44.875,91.3125 L42.625,91.3125 L42.625,89.0625 L44.875,89.0625 L44.875,91.3125 Z M44.875,86.9375 L42.625,86.9375 L42.625,84.6875 L44.875,84.6875 L44.875,86.9375 Z M44.875,82.5625 L42.625,82.5625 L42.625,80.3125 L44.875,80.3125 L44.875,82.5625 Z M44.875,78.0625 L42.625,78.0625 L42.625,75.8125 L44.875,75.8125 L44.875,78.0625 Z M44.875,73.6875 L42.625,73.6875 L42.625,71.4375 L44.875,71.4375 L44.875,73.6875 Z M44.875,69.3125 L42.625,69.3125 L42.625,67.0625 L44.875,67.0625 L44.875,69.3125 Z M44.875,64.9375 L42.625,64.9375 L42.625,62.6875 L44.875,62.6875 L44.875,64.9375 Z M44.875,60.5625 L42.625,60.5625 L42.625,58.3125 L44.875,58.3125 L44.875,60.5625 Z M44.875,56.0625 L42.625,56.0625 L42.625,53.8125 L44.875,53.8125 L44.875,56.0625 Z M44.875,50.6875 L44.875,51.6875 L42.625,51.6875 L42.625,50.6875 L41.75,50.1875 L42.875,48.3125 L43.75,48.8125 L44.625,48.3125 L45.75,50.1875 L44.875,50.6875 Z M47.625,49.0625 L46.5,47.1875 L48.375,46.0625 L49.5,47.9375 L47.625,49.0625 Z M51.5,46.9375 L50.375,45.0625 L52.25,43.9375 L53.375,45.8125 L51.5,46.9375 Z M55.25,44.6875 L54.125,42.8125 L56,41.6875 L57.125,43.5625 L55.25,44.6875 Z M59.125,42.4375 L58,40.5625 L59.875,39.4375 L61,41.3125 L59.125,42.4375 Z M62.875,40.3125 L61.75,38.4375 L63.625,37.3125 L64.75,39.1875 L62.875,40.3125 Z M66.625,38.0625 L65.5,36.1875 L67.5,35.0625 L68.625,36.9375 L66.625,38.0625 Z M70.5,35.9375 L69.375,34.0625 L71.25,32.9375 L72.375,34.8125 L70.5,35.9375 Z M74.25,33.6875 L73.125,31.8125 L75,30.6875 L76.25,32.5625 L74.25,33.6875 Z M78.125,31.4375 L77,29.5625 L78.875,28.4375 L80,30.3125 L78.125,31.4375 Z M81.875,29.3125 L80.75,27.4375 L82.625,26.3125 L83.75,28.1875 L81.875,29.3125 Z" id="Shape"></path>
            </g>
        </g>
    </g>
</svg>