<?xml version="1.0" encoding="UTF-8"?>
<svg width="100px" height="100px" viewBox="0 0 100 100" version="1.1" xmlns="http://www.w3.org/2000/svg" xmlns:xlink="http://www.w3.org/1999/xlink">
    <!-- Generator: Sketch 41.2 (35397) - http://www.bohemiancoding.com/sketch -->
    <title>justice-scale</title>
    <desc>Created with Sketch.</desc>
    <defs></defs>
    <g id="Page-1" stroke="none" stroke-width="1" fill="none" fill-rule="evenodd">
        <g id="justice-scale" fill="#DDDDDD">
            <polygon id="Shape" points="67.8571429 86.1428571 53.5714286 86.1428571 53.5714286 25.4285714 57.1428571 25.4285714 57.1428571 21.8571429 85.7142857 21.8571429 85.7142857 18.2857143 57.1428571 14.7142857 57.1428571 11.1428571 53.5714286 11.1428571 53.5714286 4 46.4285714 4 46.4285714 11.1428571 42.8571429 11.1428571 42.8571429 14.7142857 14.2857143 18.2857143 14.2857143 21.8571429 42.8571429 21.8571429 42.8571429 25.4285714 46.4285714 25.4285714 46.4285714 86.1428571 32.1428571 86.1428571 32.1428571 89.7142857 17.8571429 89.7142857 17.8571429 96.8571429 82.1428571 96.8571429 82.1428571 89.7142857 67.8571429 89.7142857"></polygon>
            <path d="M13.2821429,75.4285714 C13.225,75.4285714 13.5107143,75.4285714 14.2857143,75.4285714" id="Shape"></path>
            <path d="M17.8571429,75.4285714 L18.8607143,75.4285714" id="Shape"></path>
            <path d="M32.1428571,61.1428571 L19.8107143,25.4285714 L12.3321429,25.4285714 L0,61.1428571 C0,61.1428571 0,75.4285714 14.2857143,75.4285714 L17.8571429,75.4285714 C32.1428571,75.4285714 32.1428571,61.1428571 32.1428571,61.1428571 Z M17.8571429,29.825 L28.6,61.1428571 L17.8571429,61.1428571 L17.8571429,29.825 Z M3.54285714,61.1428571 L14.2857143,29.825 L14.2857143,61.1428571 L3.54285714,61.1428571 Z" id="Shape"></path>
            <path d="M86.7178571,75.4285714 C86.775,75.4285714 86.4892857,75.4285714 85.7142857,75.4285714" id="Shape"></path>
            <path d="M81.1392857,75.4285714 L82.1428571,75.4285714" id="Shape"></path>
            <path d="M100,61.1428571 L87.6678571,25.4285714 L80.1892857,25.4285714 L67.8571429,61.1428571 C67.8571429,61.1428571 67.8571429,75.4285714 82.1428571,75.4285714 L85.7142857,75.4285714 C100,75.4285714 100,61.1428571 100,61.1428571 Z M71.4,61.1428571 L82.1428571,29.825 L82.1428571,61.1428571 L71.4,61.1428571 Z M85.7142857,29.825 L96.4571429,61.1428571 L85.7142857,61.1428571 L85.7142857,29.825 Z" id="Shape"></path>
        </g>
    </g>
</svg>