<?xml version="1.0" encoding="UTF-8"?>
<svg width="100px" height="100px" viewBox="0 0 100 100" version="1.1" xmlns="http://www.w3.org/2000/svg" xmlns:xlink="http://www.w3.org/1999/xlink">
    <!-- Generator: Sketch 41.2 (35397) - http://www.bohemiancoding.com/sketch -->
    <title>Untitled 3</title>
    <desc>Created with Sketch.</desc>
    <defs></defs>
    <g id="Page-1" stroke="none" stroke-width="1" fill="none" fill-rule="evenodd">
        <path d="M56.357,27.865 L52.764,31.457 L57.997,36.689 L61.589,33.097 L56.357,27.865 Z M66.852,38.361 L63.261,41.952 L68.493,47.184 L72.085,43.592 L66.852,38.361 Z M63.429,0 L74.366,10.936 C70.818,15.03 70.99,21.23 74.881,25.121 C78.771,29.011 84.971,29.182 89.066,25.635 L100,36.571 L82.532,54.04 L77.348,48.855 L73.755,52.447 L78.939,57.631 L36.571,100 L25.538,88.966 C28.361,84.904 27.963,79.279 24.343,75.66 C20.719,72.037 15.096,71.639 11.034,74.463 L0,63.429 L42.369,21.061 L47.503,26.195 L51.094,22.603 L45.96,17.469 L63.429,0 Z" id="Shape" fill="#DDDDDD"></path>
    </g>
</svg>