<?xml version="1.0" encoding="UTF-8"?>
<svg width="100px" height="100px" viewBox="0 0 100 100" version="1.1" xmlns="http://www.w3.org/2000/svg" xmlns:xlink="http://www.w3.org/1999/xlink">
    <!-- Generator: Sketch 41.2 (35397) - http://www.bohemiancoding.com/sketch -->
    <title>undercover</title>
    <desc>Created with Sketch.</desc>
    <defs></defs>
    <g id="Page-1" stroke="none" stroke-width="1" fill="none" fill-rule="evenodd">
        <g id="undercover" fill="#DDDDDD">
            <path d="M61.9196085,6.68052257 C59.7193873,2.56061102 55.1909657,0 50.098411,0 C44.8952822,0.00102383488 40.1876894,2.87902367 37.784749,7.57330658 L21,44.5726513 L22.3965108,45.1818331 C22.6627078,45.2985502 25.5857564,46.5609387 29.8694815,47.9400442 L29.8694815,61.0993939 C29.8694815,66.1602097 36.5581948,66.1602097 36.5581948,61.0993939 L36.5581948,49.8218527 C37.5380048,50.0583586 38.5495536,50.2784831 39.5733885,50.4842739 L39.564174,95.244287 C39.564174,97.8683758 41.6947743,100 44.3188631,100 C46.9501188,100 48.5964452,97.8693996 48.5964452,95.244287 L48.6005406,64.6357196 L51.3311082,64.6510771 L51.3167745,95.3784094 C51.3167745,98.0004505 53.3173479,100 55.945532,100 C58.5685969,100 60.6991973,97.8693996 60.6991973,95.244287 L60.713531,50.7678762 C61.6441969,50.6122533 62.5605291,50.4484397 63.4440986,50.2702924 L63.4440986,61.0983701 C63.4440986,66.1939962 70.0990253,66.1939962 70.0846916,61.0983701 L70.0846916,48.6198706 C74.7042346,47.2550987 77.6948563,45.9230895 77.9467196,45.80842 L79.3125154,45.1889999 L61.9196085,6.68052257 Z M62.0875174,47.4629372 L57.0543452,21.4606028 L54.0985339,22.0329265 L59.1204439,47.9646163 C56.5393562,48.3495782 53.8016218,48.6024654 50.985052,48.642395 L50.985052,33.600213 L47.9790728,33.600213 L47.9790728,48.5727742 C44.9464739,48.3966746 41.8565403,47.9154722 38.9355394,47.2776231 L42.8834466,27.5339913 L39.935826,26.9442624 L36.011467,46.5742485 C31.150299,45.3169793 27.0611025,43.811942 25.0124089,43.0020886 L40.4907445,8.87971988 C42.3459333,5.25841592 46.0286674,3.00700303 50.098411,3.0059792 C54.0770333,3.0059792 57.5928823,4.95638463 59.2258989,8.0084364 L75.3185355,43.6450569 C73.0476698,44.5398886 68.1762634,46.2855271 62.0875174,47.4629372 Z" id="Shape"></path>
        </g>
    </g>
</svg>